<?xml version="1.0" encoding="UTF-8" standalone="no"?>
<svg width="24px" height="24px" viewBox="0 0 24 24" version="1.1" xmlns="http://www.w3.org/2000/svg" xmlns:xlink="http://www.w3.org/1999/xlink" xmlns:sketch="http://www.bohemiancoding.com/sketch/ns">
    <!-- Generator: Sketch 3.3.3 (12081) - http://www.bohemiancoding.com/sketch -->
    <title>80%</title>
    <desc>Created with Sketch.</desc>
    <defs></defs>
    <g id="Icons" stroke="none" stroke-width="1" fill="none" fill-rule="evenodd" sketch:type="MSPage">
        <g id="80%" sketch:type="MSArtboardGroup" stroke="#878896">
            <rect id="Rectangle-1" sketch:type="MSShapeGroup" x="0" y="0" width="24" height="24" rx="3"></rect>
            <path d="M2.5,1.5 L2.5,22.5" id="Line" stroke-linecap="square" sketch:type="MSShapeGroup"></path>
            <path d="M5.5,1.5 L5.5,22.5" id="Line-Copy" stroke-linecap="square" sketch:type="MSShapeGroup"></path>
            <path d="M10.5,1.5 L10.5,22.5" id="Line-Copy-2" stroke-linecap="square" sketch:type="MSShapeGroup"></path>
            <path d="M7.5,1.5 L7.5,22.5" id="Line-Copy-8" stroke-linecap="square" sketch:type="MSShapeGroup"></path>
            <path d="M13.5,1.5 L13.5,22.5" id="Line-Copy-3" stroke-linecap="square" sketch:type="MSShapeGroup"></path>
            <path d="M16.5,1.5 L16.5,22.5" id="Line-Copy-9" stroke-linecap="square" sketch:type="MSShapeGroup"></path>
            <path d="M18.5,1.5 L18.5,22.5" id="Line-Copy-4" stroke-linecap="square" sketch:type="MSShapeGroup"></path>
            <path d="M21.5,1.5 L21.5,22.5" id="Line-Copy-12" stroke-linecap="square" sketch:type="MSShapeGroup"></path>
            <path d="M22.75,5.5 L1.25,5.5" id="Line-Copy-4" stroke-linecap="square" sketch:type="MSShapeGroup"></path>
            <path d="M22.75,2.5 L1.25,2.5" id="Line-Copy-13" stroke-linecap="square" sketch:type="MSShapeGroup"></path>
            <path d="M22.75,10.5 L1.25,10.5" id="Line-Copy-5" stroke-linecap="square" sketch:type="MSShapeGroup"></path>
            <path d="M22.75,7.5 L1.25,7.5" id="Line-Copy-10" stroke-linecap="square" sketch:type="MSShapeGroup"></path>
            <path d="M22.75,13.5 L1.25,13.5" id="Line-Copy-6" stroke-linecap="square" sketch:type="MSShapeGroup"></path>
            <path d="M22.75,16.5 L1.25,16.5" id="Line-Copy-11" stroke-linecap="square" sketch:type="MSShapeGroup"></path>
            <path d="M22.75,21.5 L1.25,21.5" id="Line-Copy-7" stroke-linecap="square" sketch:type="MSShapeGroup"></path>
            <path d="M22.75,19.5 L1.25,19.5" id="Line-Copy-14" stroke-linecap="square" sketch:type="MSShapeGroup"></path>
        </g>
    </g>
</svg>