<?xml version="1.0" encoding="UTF-8" standalone="no"?>
<svg width="24px" height="24px" viewBox="0 0 24 24" version="1.1" xmlns="http://www.w3.org/2000/svg" xmlns:xlink="http://www.w3.org/1999/xlink" xmlns:sketch="http://www.bohemiancoding.com/sketch/ns">
    <!-- Generator: Sketch 3.3.3 (12081) - http://www.bohemiancoding.com/sketch -->
    <title>70%</title>
    <desc>Created with Sketch.</desc>
    <defs></defs>
    <g id="Icons" stroke="none" stroke-width="1" fill="none" fill-rule="evenodd" sketch:type="MSPage">
        <g id="70%" sketch:type="MSArtboardGroup" stroke="#878896">
            <rect id="Rectangle-1" sketch:type="MSShapeGroup" x="0" y="0" width="24" height="24" rx="3"></rect>
            <path d="M15,1.5 L15,22.5" id="Line" stroke-linecap="square" sketch:type="MSShapeGroup"></path>
            <path d="M18,1.5 L18,22.5" id="Line-Copy-4" stroke-linecap="square" sketch:type="MSShapeGroup"></path>
            <path d="M21,1.5 L21,22.5" id="Line-Copy-5" stroke-linecap="square" sketch:type="MSShapeGroup"></path>
            <path d="M9,1.5 L9,22.5" id="Line-Copy-2" stroke-linecap="square" sketch:type="MSShapeGroup"></path>
            <path d="M22.5,12 L1,12" id="Line-Copy" stroke-linecap="square" sketch:type="MSShapeGroup"></path>
            <path d="M22.5,15 L1,15" id="Line-Copy-8" stroke-linecap="square" sketch:type="MSShapeGroup"></path>
            <path d="M22.5,21 L1,21" id="Line-Copy-9" stroke-linecap="square" sketch:type="MSShapeGroup"></path>
            <path d="M22.5,18 L1,18" id="Line-Copy-13" stroke-linecap="square" sketch:type="MSShapeGroup"></path>
            <path d="M22.5,9 L1,9" id="Line-Copy-6" stroke-linecap="square" sketch:type="MSShapeGroup"></path>
            <path d="M22.5,3 L1,3" id="Line-Copy-7" stroke-linecap="square" sketch:type="MSShapeGroup"></path>
            <path d="M22.5,6 L1,6" id="Line-Copy-12" stroke-linecap="square" sketch:type="MSShapeGroup"></path>
            <path d="M3,1.5 L3,22.5" id="Line-Copy-3" stroke-linecap="square" sketch:type="MSShapeGroup"></path>
            <path d="M6,1.5 L6,22.5" id="Line-Copy-10" stroke-linecap="square" sketch:type="MSShapeGroup"></path>
            <path d="M12,1.5 L12,22.5" id="Line-Copy-11" stroke-linecap="square" sketch:type="MSShapeGroup"></path>
        </g>
    </g>
</svg>