<?xml version="1.0" encoding="UTF-8" standalone="no"?>
<svg width="24px" height="24px" viewBox="0 0 24 24" version="1.1" xmlns="http://www.w3.org/2000/svg" xmlns:xlink="http://www.w3.org/1999/xlink" xmlns:sketch="http://www.bohemiancoding.com/sketch/ns">
    <!-- Generator: Sketch 3.3.3 (12081) - http://www.bohemiancoding.com/sketch -->
    <title>Raft Small</title>
    <desc>Created with Sketch.</desc>
    <defs>
        <path id="path-1" d="M0,9 L0,7 L15.3333333,7 L15.3333333,9 L0,9 Z"></path>
        <path id="path-2" d="M15.3333333,9 L23,2 L23,0 L15.3333333,7 L15.3333333,9 Z"></path>
        <path id="path-3" d="M23,0 L7.66666667,0 L0,7 L15.3333333,7 L23,0 Z"></path>
    </defs>
    <g id="Icons" stroke="none" stroke-width="1" fill="none" fill-rule="evenodd" sketch:type="MSPage">
        <g id="Raft-Small" sketch:type="MSArtboardGroup">
            <g id="Path-16-+-Path-17-+-Path-18-+-Path-18-+-Path-15-+-Path-17" sketch:type="MSLayerGroup" transform="translate(0.000000, 3.500000)">
                <g id="Path-16-+-Path-17-+-Path-18" transform="translate(0.500000, 11.000000)">
                    <g id="Path-16">
                        <use stroke="#46B1E6" stroke-width="1" stroke-linecap="round" stroke-linejoin="round" fill="#46B1E6" sketch:type="MSShapeGroup" xlink:href="#path-1"></use>
                        <use stroke="none" fill-opacity="0.6" fill="#FFFFFF" xlink:href="#path-1"></use>
                    </g>
                    <g id="Path-17">
                        <use stroke="#46B1E6" stroke-width="1" stroke-linecap="round" stroke-linejoin="round" fill="#46B1E6" sketch:type="MSShapeGroup" xlink:href="#path-2"></use>
                        <use stroke="none" fill-opacity="0.6" fill="#FFFFFF" xlink:href="#path-2"></use>
                    </g>
                    <g id="Path-18">
                        <use stroke="#46B1E6" stroke-width="1" stroke-linecap="round" stroke-linejoin="round" fill="#46B1E6" sketch:type="MSShapeGroup" xlink:href="#path-3"></use>
                        <use stroke="none" fill-opacity="0.6" fill="#FFFFFF" xlink:href="#path-3"></use>
                    </g>
                </g>
                <g id="Path-18-+-Path-15-+-Path-17" transform="translate(3.500000, 0.000000)" stroke="#878896" fill="#DCDCDE" sketch:type="MSShapeGroup" stroke-linejoin="round">
                    <path d="M11.5,5 L11.5,16.5 L0,16.5 L0,5 L11.5,5 Z" id="Path-18"></path>
                    <path d="M11.5,16.5 L11.5,5 L17.5,0 L17.5,11.5 L11.5,16.5 Z" id="Path-15"></path>
                    <path d="M11.5,5 L8.8817842e-16,5 L6,0 L17.5,0 L11.5,5 Z" id="Path-17"></path>
                </g>
            </g>
        </g>
    </g>
</svg>