<?xml version="1.0" encoding="UTF-8" standalone="no"?>
<svg width="400px" height="205px" viewBox="0 0 400 205" version="1.1" xmlns="http://www.w3.org/2000/svg" xmlns:xlink="http://www.w3.org/1999/xlink" xmlns:sketch="http://www.bohemiancoding.com/sketch/ns">
    <!-- Generator: Sketch 3.3.3 (12081) - http://www.bohemiancoding.com/sketch -->
    <title>Tilable Shapes</title>
    <desc>Created with Sketch.</desc>
    <defs>
        <rect id="path-1" x="0" y="0" width="400" height="233.48587"></rect>
        <linearGradient x1="50.0171422%" y1="98.6277704%" x2="50.0171422%" y2="-2.97272577%" id="linearGradient-3">
            <stop stop-color="#2591CF" offset="0%"></stop>
            <stop stop-color="#63C4F0" offset="100%"></stop>
        </linearGradient>
    </defs>
    <g id="FormideClient" stroke="none" stroke-width="1" fill="none" fill-rule="evenodd" sketch:type="MSPage">
        <g id="Files-Copy" sketch:type="MSArtboardGroup" transform="translate(0.000000, -83.000000)">
            <g id="Shapes" sketch:type="MSLayerGroup" transform="translate(0.000000, 54.000000)">
                <g id="Tilable-Shapes">
                    <mask id="mask-2" sketch:name="Mask" fill="white">
                        <use xlink:href="#path-1"></use>
                    </mask>
                    <g id="Mask"></g>
                    <path d="M-6.10913941,157.631294 C-6.16446243,157.631294 -6.25170259,157.640884 -6.26446944,157.623835 L-6.26766115,157.623835 L-6.27085286,157.623835 C-6.46235564,157.604654 -6.65385841,157.553507 -6.83153043,157.465065 L-6.83153043,157.465065 C-6.83791385,157.461868 -6.84110557,157.458671 -6.84748899,157.455475 L-6.84748899,157.455475 L-6.85068071,157.455475 L-31.2992014,145.214215 C-31.5907112,145.067167 -31.8343453,144.837004 -32.0003144,144.550366 L-48.2972004,115.987782 C-48.4855114,115.653193 -48.5504096,115.275982 -48.4982783,114.919016 L-44.4256527,86.3585633 C-44.3809687,86.052745 -44.2533002,85.7629101 -44.055414,85.5263538 L-23.6901579,61.0544904 C-23.6539852,61.0065398 -23.6124929,60.963917 -23.5699367,60.9212942 L-23.5699367,60.9212942 L-23.566745,60.9180975 C-23.566745,60.9180975 -23.566745,60.9180975 -23.5635533,60.9149008 C-23.5635533,60.9149008 -23.566745,60.9180975 -23.5571699,60.9085074 L-23.5571699,60.9085074 C-23.5539782,60.9085074 -23.5539782,60.9053107 -23.5539782,60.9053107 L-23.5507864,60.9053107 C-23.4986551,60.8530978 -23.4433321,60.8083439 -23.3848174,60.7657211 L-23.3816257,60.7625244 C-23.3816257,60.7625244 -23.378434,60.7625244 -23.378434,60.7593277 L-23.3752422,60.7593277 C-23.3752422,60.7593277 -23.3752422,60.7593277 -23.3720505,60.756131 C-23.3720505,60.756131 -23.3720505,60.756131 -23.3688588,60.7529343 L-23.3656671,60.7529343 C-23.3656671,60.7529343 -23.3656671,60.7497376 -23.3624754,60.7497376 L-23.3624754,60.7497376 C-23.1901229,60.6293283 -22.9954284,60.5387549 -22.7847754,60.4897387 L-22.7847754,60.4897387 L-22.7783919,60.4897387 L-22.7752002,60.4897387 L-22.7720085,60.486542 L-22.7656251,60.486542 L-22.7656251,60.486542 C-22.7230689,60.4769519 -22.6815766,60.4705584 -22.6358288,60.464165 L5.8789342,56.3819692 C6.13852685,56.3457399 6.3981195,56.3723791 6.63856187,56.4501657 L31.0817631,64.6134917 C31.4488101,64.733901 31.7754287,64.9875065 31.9871456,65.3444722 C31.9935291,65.3540623 32.0009764,65.3615213 32.0041681,65.3700458 L48.2989263,93.9294328 C48.4765983,94.2416446 48.5478799,94.6050038 48.502132,94.963035 L44.4273786,127.607815 L44.4273786,127.611011 L44.4273786,127.614208 L44.4273786,127.617405 C44.4241869,127.621667 44.4241869,127.624864 44.4241869,127.624864 L44.4241869,127.62806 C44.4241869,127.62806 44.4241869,127.62806 44.4241869,127.631257 L44.4241869,127.631257 L44.4241869,127.63765 L44.4241869,127.63765 C44.3880141,127.881666 44.300774,128.108632 44.1709776,128.31109 L44.1709776,128.31109 C44.1645942,128.317484 44.1614025,128.323877 44.1582108,128.327074 C44.1582108,128.327074 44.1582108,128.327074 44.1582108,128.33027 C44.1582108,128.33027 44.1539552,128.33027 44.1539552,128.333467 L44.1539552,128.333467 C44.1507635,128.337729 44.1507635,128.337729 44.1507635,128.340926 L44.1475717,128.340926 L44.1475717,128.344123 C44.1475717,128.34732 44.14438,128.34732 44.14438,128.34732 L44.14438,128.350516 L44.1411883,128.350516 C44.1411883,128.353713 44.1379966,128.35691 44.1379966,128.360106 L44.1379966,128.360106 C44.1379966,128.360106 44.1348049,128.360106 44.1348049,128.364369 L44.1348049,128.364369 C44.1316132,128.364369 44.1316132,128.367565 44.1316132,128.367565 C44.1316132,128.367565 44.1241659,128.373959 44.1209741,128.380352 L44.1209741,128.380352 C44.1209741,128.383549 44.1209741,128.383549 44.1177824,128.383549 L44.1177824,128.386746 C44.1145907,128.391008 44.111399,128.394205 44.1082073,128.397401 L44.1082073,128.397401 C44.1082073,128.400598 44.10076,128.403795 44.1050156,128.403795 C44.0879931,128.426172 44.0688428,128.449614 44.0528843,128.471991 L23.6833726,152.951314 C23.4205882,153.265656 23.0503495,153.473442 22.6418103,153.533114 L-5.86976094,157.614245 C-5.88997513,157.614245 -5.9091254,157.617441 -5.92827568,157.620638 L-5.93146739,157.620638 C-5.93146739,157.620638 -5.93146739,157.620638 -5.93465911,157.620638 L-5.93785082,157.620638 L-5.94104253,157.620638 L-5.94423425,157.620638 L-5.94742596,157.623835 L-5.95380938,157.623835 L-5.95380938,157.623835 C-6.00594069,157.628097 -6.0570081,157.631294 -6.10913941,157.631294 L-6.10913941,157.631294 Z M-4.4483848,124.420697 L-4.4483848,154.049915 L21.5417333,150.328948 L40.4164594,127.638716 L22.1513504,113.000991 L-4.4483848,124.420697 L-4.4483848,124.420697 Z M-29.3650234,142.459719 L-7.77095792,153.275247 L-7.77095792,124.102092 L-30.6140471,105.037992 L-44.6831175,115.61057 L-29.3650234,142.459719 L-29.3650234,142.459719 Z M23.9078564,110.147397 L41.4973861,124.244878 L45.1380666,95.0994279 L29.8976376,68.3866724 L16.1658248,75.259594 L23.9078564,110.147397 L23.9078564,110.147397 Z M-28.4851746,102.480626 L-5.82720477,121.392349 L20.4905958,110.095184 L12.8879357,75.8381981 L-13.3096437,72.0873944 L-28.4851746,102.480626 L-28.4851746,102.480626 Z M-41.2041504,87.2941331 L-44.6405613,111.421818 L-31.8694541,101.821039 L-16.2821923,70.5998597 L-22.2975072,64.5751312 L-41.2041504,87.2941331 L-41.2041504,87.2941331 Z M-13.4777406,68.7020809 L13.9816293,72.6340314 L26.2282317,66.5016804 L5.96085483,59.732119 L-18.8845022,63.2879235 L-13.4777406,68.7020809 L-13.4777406,68.7020809 Z" id="Shape-Copy-25" fill="url(#linearGradient-3)" sketch:type="MSShapeGroup" mask="url(#mask-2)"></path>
                    <path d="M393.890861,157.631294 C393.835538,157.631294 393.748297,157.640884 393.735531,157.623835 L393.732339,157.623835 L393.729147,157.623835 C393.537644,157.604654 393.346142,157.553507 393.16847,157.465065 L393.16847,157.465065 C393.162086,157.461868 393.158894,157.458671 393.152511,157.455475 L393.152511,157.455475 L393.149319,157.455475 L368.700799,145.214215 C368.409289,145.067167 368.165655,144.837004 367.999686,144.550366 L351.7028,115.987782 C351.514489,115.653193 351.44959,115.275982 351.501722,114.919016 L355.574347,86.3585633 C355.619031,86.052745 355.7467,85.7629101 355.944586,85.5263538 L376.309842,61.0544904 C376.346015,61.0065398 376.387507,60.963917 376.430063,60.9212942 L376.430063,60.9212942 L376.433255,60.9180975 C376.433255,60.9180975 376.433255,60.9180975 376.436447,60.9149008 C376.436447,60.9149008 376.433255,60.9180975 376.44283,60.9085074 L376.44283,60.9085074 C376.446022,60.9085074 376.446022,60.9053107 376.446022,60.9053107 L376.449214,60.9053107 C376.501345,60.8530978 376.556668,60.8083439 376.615183,60.7657211 L376.618374,60.7625244 C376.618374,60.7625244 376.621566,60.7625244 376.621566,60.7593277 L376.624758,60.7593277 C376.624758,60.7593277 376.624758,60.7593277 376.627949,60.756131 C376.627949,60.756131 376.627949,60.756131 376.631141,60.7529343 L376.634333,60.7529343 C376.634333,60.7529343 376.634333,60.7497376 376.637525,60.7497376 L376.637525,60.7497376 C376.809877,60.6293283 377.004572,60.5387549 377.215225,60.4897387 L377.215225,60.4897387 L377.221608,60.4897387 L377.2248,60.4897387 L377.227991,60.486542 L377.234375,60.486542 L377.234375,60.486542 C377.276931,60.4769519 377.318423,60.4705584 377.364171,60.464165 L405.878934,56.3819692 C406.138527,56.3457399 406.398119,56.3723791 406.638562,56.4501657 L431.081763,64.6134917 C431.44881,64.733901 431.775429,64.9875065 431.987146,65.3444722 C431.993529,65.3540623 432.000976,65.3615213 432.004168,65.3700458 L448.298926,93.9294328 C448.476598,94.2416446 448.54788,94.6050038 448.502132,94.963035 L444.427379,127.607815 L444.427379,127.611011 L444.427379,127.614208 L444.427379,127.617405 C444.424187,127.621667 444.424187,127.624864 444.424187,127.624864 L444.424187,127.62806 C444.424187,127.62806 444.424187,127.62806 444.424187,127.631257 L444.424187,127.631257 L444.424187,127.63765 L444.424187,127.63765 C444.388014,127.881666 444.300774,128.108632 444.170978,128.31109 L444.170978,128.31109 C444.164594,128.317484 444.161403,128.323877 444.158211,128.327074 C444.158211,128.327074 444.158211,128.327074 444.158211,128.33027 C444.158211,128.33027 444.153955,128.33027 444.153955,128.333467 L444.153955,128.333467 C444.150763,128.337729 444.150763,128.337729 444.150763,128.340926 L444.147572,128.340926 L444.147572,128.344123 C444.147572,128.34732 444.14438,128.34732 444.14438,128.34732 L444.14438,128.350516 L444.141188,128.350516 C444.141188,128.353713 444.137997,128.35691 444.137997,128.360106 L444.137997,128.360106 C444.137997,128.360106 444.134805,128.360106 444.134805,128.364369 L444.134805,128.364369 C444.131613,128.364369 444.131613,128.367565 444.131613,128.367565 C444.131613,128.367565 444.124166,128.373959 444.120974,128.380352 L444.120974,128.380352 C444.120974,128.383549 444.120974,128.383549 444.117782,128.383549 L444.117782,128.386746 C444.114591,128.391008 444.111399,128.394205 444.108207,128.397401 L444.108207,128.397401 C444.108207,128.400598 444.10076,128.403795 444.105016,128.403795 C444.087993,128.426172 444.068843,128.449614 444.052884,128.471991 L423.683373,152.951314 C423.420588,153.265656 423.05035,153.473442 422.64181,153.533114 L394.130239,157.614245 C394.110025,157.614245 394.090875,157.617441 394.071724,157.620638 L394.068533,157.620638 C394.068533,157.620638 394.068533,157.620638 394.065341,157.620638 L394.062149,157.620638 L394.058957,157.620638 L394.055766,157.620638 L394.052574,157.623835 L394.046191,157.623835 L394.046191,157.623835 C393.994059,157.628097 393.942992,157.631294 393.890861,157.631294 L393.890861,157.631294 Z M395.551615,124.420697 L395.551615,154.049915 L421.541733,150.328948 L440.416459,127.638716 L422.15135,113.000991 L395.551615,124.420697 L395.551615,124.420697 Z M370.634977,142.459719 L392.229042,153.275247 L392.229042,124.102092 L369.385953,105.037992 L355.316883,115.61057 L370.634977,142.459719 L370.634977,142.459719 Z M423.907856,110.147397 L441.497386,124.244878 L445.138067,95.0994279 L429.897638,68.3866724 L416.165825,75.259594 L423.907856,110.147397 L423.907856,110.147397 Z M371.514825,102.480626 L394.172795,121.392349 L420.490596,110.095184 L412.887936,75.8381981 L386.690356,72.0873944 L371.514825,102.480626 L371.514825,102.480626 Z M358.79585,87.2941331 L355.359439,111.421818 L368.130546,101.821039 L383.717808,70.5998597 L377.702493,64.5751312 L358.79585,87.2941331 L358.79585,87.2941331 Z M386.522259,68.7020809 L413.981629,72.6340314 L426.228232,66.5016804 L405.960855,59.732119 L381.115498,63.2879235 L386.522259,68.7020809 L386.522259,68.7020809 Z" id="Shape-Copy-22" fill="url(#linearGradient-3)" sketch:type="MSShapeGroup" mask="url(#mask-2)"></path>
                    <path d="M155.414668,223.331019 L128.790857,158.709938 C128.448986,157.883229 127.535278,157.44314 126.679062,157.713568 L77.2320551,173.017966 C77.0328872,173.078632 76.8470657,173.177344 76.6807503,173.305875 L59.4712126,186.686426 C58.7145801,187.05865 58.3532035,187.905924 58.5852237,188.708984 C58.5913835,188.735718 58.5770106,188.760396 58.5852237,188.78713 C58.5883036,188.800497 58.6037032,188.807695 58.6067831,188.821062 C58.6170495,188.844712 58.6119163,188.871446 58.6221827,188.896124 L85.8075648,254.465247 C86.0005728,254.928985 86.3927486,255.200442 86.8259899,255.362905 C86.9481599,255.417402 87.0764897,255.448249 87.208926,255.474983 C87.2797641,255.485266 87.3372558,255.53565 87.4080939,255.53565 C87.4286266,255.53565 87.4450528,255.525367 87.4625057,255.525367 C87.4963847,255.525367 87.5230773,255.542847 87.5569564,255.542847 C87.6041818,255.542847 87.6514071,255.539763 87.6986325,255.53565 C87.7499644,255.532565 87.7900033,255.505831 87.8372287,255.495548 C87.9224396,255.481153 88.006624,255.485266 88.0877284,255.458531 L139.745088,239.462125 C139.77794,239.451843 139.802579,239.425108 139.836458,239.414826 C140.093118,239.336679 140.343618,239.2246 140.553052,239.024093 L155.008119,225.248695 C155.526571,224.753081 155.689807,223.991152 155.414668,223.331019 L155.414668,223.331019 Z M66.0683903,190.440548 L83.014082,218.776922 L84.9934406,243.453772 L62.918664,190.214334 L66.0683903,190.440548 L66.0683903,190.440548 Z M86.5652238,219.796941 L115.559543,220.046804 C115.77719,220.215436 116.023583,220.356306 116.315148,220.356306 L116.321308,220.356306 L135.831542,236.987139 L89.1123134,251.483336 L86.5652238,219.796941 L86.5652238,219.796941 Z M115.239231,216.624805 L85.5775978,216.316332 L69.7519685,189.848279 L124.893738,162.568941 L115.239231,216.624805 L115.239231,216.624805 Z M78.5543652,176.240486 L107.623629,167.241286 L67.4481921,187.11726 C67.3670877,187.09978 67.2993296,187.049396 67.2141186,187.042199 L64.8774898,186.875623 L78.5543652,176.240486 L78.5543652,176.240486 Z M139.29234,235.436546 L118.548087,217.807287 L127.874069,165.577586 L151.760862,223.554148 L139.29234,235.436546 L139.29234,235.436546 Z" id="Shape-Copy-23" fill="url(#linearGradient-3)" sketch:type="MSShapeGroup" mask="url(#mask-2)"></path>
                    <path d="M173.373508,116.712776 L190.418524,74.0304629 C190.473998,73.8987623 190.508927,73.762946 190.529473,73.625072 C190.535637,73.5849445 190.536664,73.5458458 190.540773,73.5057183 C190.547964,73.4162031 190.548992,73.3266878 190.542828,73.2382015 C190.539746,73.1908716 190.535637,73.1445706 190.528445,73.0972407 C190.514063,73.0056676 190.491463,72.9161523 190.463725,72.827666 C190.451398,72.792683 190.444207,72.7566711 190.431879,72.7216882 C190.383596,72.6002767 190.322985,72.4860676 190.249019,72.377003 C190.24491,72.3708295 190.242855,72.3646561 190.238746,72.3584826 L160.383258,29.6422155 C160.372985,29.6288397 160.380176,29.6154638 160.369903,29.6010591 L160.384285,29.5979724 L160.384285,30.3027764 L160.346275,30.3027764 C159.932272,29.2738654 159.222405,29.1462804 158.54644,29.2985593 C158.54644,29.3026749 158.542331,29.2862123 158.539249,29.2862123 C158.536167,29.290328 158.528976,29.2738654 158.528976,29.2738654 L158.524866,29.2738654 L158.521785,29.2738654 L158.518703,29.2738654 L158.514593,29.2738654 L158.511512,29.2738654 L158.50432,29.2738654 C158.501238,29.2738654 158.501238,29.1184999 158.497129,29.1184999 L111.582243,41.8543596 C111.556561,41.861562 111.534987,41.8348103 111.509305,41.8430416 C111.419929,41.8718511 111.332608,41.8852269 111.249397,41.9284412 C111.193923,41.9562218 111.144612,41.9829735 111.093247,42.0158986 C111.040854,42.0498527 110.989489,42.0786622 110.942233,42.1177608 C110.897032,42.1548016 110.85594,42.1928713 110.814848,42.2340278 C110.765537,42.2834155 110.719308,42.334861 110.675134,42.3904222 C110.644315,42.4305497 110.614523,42.4686195 110.587814,42.5108048 C110.540558,42.5828286 110.50152,42.6599969 110.464537,42.7402519 C110.453237,42.7639169 110.4368,42.7834662 110.427554,42.8081601 L93.5181423,85.5182537 C93.4975962,85.5707281 93.6095723,85.6252604 93.6095723,85.6787638 L93.6095723,85.6808216 L93.6095723,86.2590696 L93.6095723,86.2673008 C93.6095723,86.2673008 93.6095723,86.2673008 93.6095723,86.2693587 C93.6095723,86.2693587 93.6095723,86.2693587 93.6095723,86.2734743 L93.6095723,86.27759 L93.6095723,86.2796478 C93.6095723,86.3557872 93.6075177,86.4339844 93.6218999,86.5090949 C93.6249818,86.5132106 93.6095723,86.5132106 93.6095723,86.5152684 L93.6095723,86.5234997 C93.6095723,86.5234997 93.6095723,86.5234997 93.6095723,86.5255575 C93.6095723,86.5255575 93.6095723,86.5255575 93.6095723,86.5296731 L93.6095723,86.5337888 C93.6095723,86.5337888 93.6095723,86.5337888 93.6095723,86.5358466 L93.6095723,86.5399622 C93.6095723,86.7364842 93.5623163,86.9278617 93.6712105,87.1007187 C93.6712105,87.0986609 93.6403914,87.1048344 93.6403914,87.1048344 C93.6403914,87.10895 93.6095723,87.10895 93.6095723,87.10895 L93.6095723,87.1110078 L93.5633436,87.1151235 C93.5941627,87.1634823 93.6003266,87.2077255 93.6332003,87.2519686 L123.475333,125.691053 C123.477388,125.695169 123.475333,125.697226 123.477388,125.701342 C123.479442,125.7034 123.477388,125.705458 123.479442,125.709573 C123.485606,125.717805 123.493825,125.723978 123.501016,125.73118 C123.525671,125.761019 123.554436,125.783655 123.581145,125.811435 C123.608883,125.841274 123.635593,125.870083 123.665384,125.895806 C123.696203,125.923587 123.721886,125.959599 123.753732,125.98635 C123.780442,126.006929 123.812289,126.020304 123.840026,126.040883 C123.881118,126.068663 123.923237,126.095415 123.966384,126.11908 C123.971521,126.123195 123.976657,126.127311 123.982821,126.129369 C124.072196,126.181843 124.163626,126.221971 124.259166,126.255925 C124.302312,126.27033 124.343404,126.287821 124.387579,126.300168 C124.409152,126.306342 124.429698,126.318689 124.451271,126.321775 C124.57763,126.349556 124.70707,126.366018 124.83651,126.366018 C124.938213,126.366018 125.044025,126.353672 125.14881,126.338238 L172.064724,117.79519 C172.12328,117.784901 172.175672,117.773583 172.232174,117.757121 C172.246556,117.751976 172.261966,117.760207 172.275321,117.760207 L172.27943,117.760207 C172.301003,117.760207 172.319495,117.732427 172.341068,117.724195 C172.383188,117.709791 172.423252,117.689212 172.464345,117.670692 C172.485918,117.660403 172.509546,117.651143 172.530092,117.639825 C172.547556,117.629536 172.556802,117.624391 172.563993,117.622333 C172.578375,117.614102 172.587621,117.600726 172.602003,117.593524 C172.745826,117.513269 172.878348,117.414493 172.992379,117.300284 C173.006761,117.283821 173.017034,117.265301 173.031416,117.250896 C173.143392,117.128456 173.237904,116.991611 173.309815,116.84139 C173.315979,116.831101 173.326252,116.822869 173.331389,116.811551 C173.335498,116.80332 173.339607,116.79406 173.342689,116.7848 L173.347825,116.774511 C173.356044,116.752903 173.364262,116.733354 173.373508,116.712776 L173.373508,116.712776 Z M170.257697,113.08998 L140.665199,94.561352 L173.957016,68.6307382 L170.257697,113.08998 L170.257697,113.08998 Z M138.62292,91.7380204 L127.36984,50.4097542 L172.384215,65.4400854 L138.62292,91.7380204 L138.62292,91.7380204 Z M177.507376,67.9012404 L186.677085,74.0253183 L174.450122,104.635419 L177.507376,67.9012404 L177.507376,67.9012404 Z M182.089149,66.773554 L177.365609,63.618913 L171.069267,51.0075514 L182.089149,66.773554 L182.089149,66.773554 Z M172.584539,61.8337525 L129.366917,47.4053342 L158.179693,32.9769159 L172.584539,61.8337525 L172.584539,61.8337525 Z M124.703988,45.8465341 L118.041926,43.6220286 L142.472225,36.9474833 L124.703988,45.8465341 L124.703988,45.8465341 Z M113.04615,45.628405 L121.95287,48.6029865 L101.167443,75.3670182 L113.04615,45.628405 L113.04615,45.628405 Z M124.071169,51.5487586 L135.212273,92.4551713 L98.0793689,85.0182029 L124.071169,51.5487586 L124.071169,51.5487586 Z M135.186591,96.005943 L124.396824,121.220435 L99.2207028,88.8015085 L135.186591,96.005943 L135.186591,96.005943 Z M138.431842,97.2745902 L167.017583,115.170438 L127.709877,122.33063 L138.431842,97.2745902 L138.431842,97.2745902 Z" id="Shape-Copy-19" fill="url(#linearGradient-3)" sketch:type="MSShapeGroup" mask="url(#mask-2)"></path>
                    <path d="M417.889133,272.456386 L434.934149,229.774073 C434.989623,229.642373 435.024552,229.506557 435.045098,229.368683 C435.051262,229.328555 435.052289,229.289456 435.056398,229.249329 C435.063589,229.159814 435.064617,229.070298 435.058453,228.981812 C435.055371,228.934482 435.051262,228.888181 435.04407,228.840851 C435.029688,228.749278 435.007088,228.659763 434.97935,228.571277 C434.967023,228.536294 434.959832,228.500282 434.947504,228.465299 C434.899221,228.343887 434.83861,228.229678 434.764644,228.120614 C434.760535,228.11444 434.75848,228.108267 434.754371,228.102093 L404.898883,185.385826 C404.88861,185.37245 404.895801,185.359074 404.885528,185.34467 L404.89991,185.341583 L404.89991,186.046387 L404.8619,186.046387 C404.447897,185.017476 403.73803,184.889891 403.062065,185.04217 C403.062065,185.046285 403.057956,185.029823 403.054874,185.029823 C403.051792,185.033939 403.044601,185.017476 403.044601,185.017476 L403.040491,185.017476 L403.03741,185.017476 L403.034328,185.017476 L403.030218,185.017476 L403.027137,185.017476 L403.019945,185.017476 C403.016863,185.017476 403.016863,184.86211 403.012754,184.86211 L356.097868,197.59797 C356.072186,197.605173 356.050612,197.578421 356.02493,197.586652 C355.935554,197.615462 355.848233,197.628837 355.765022,197.672052 C355.709548,197.699832 355.660237,197.726584 355.608872,197.759509 C355.556479,197.793463 355.505114,197.822273 355.457858,197.861371 C355.412657,197.898412 355.371565,197.936482 355.330473,197.977638 C355.281162,198.027026 355.234933,198.078472 355.190759,198.134033 C355.15994,198.17416 355.130148,198.21223 355.103439,198.254415 C355.056183,198.326439 355.017145,198.403607 354.980162,198.483862 C354.968862,198.507527 354.952425,198.527077 354.943179,198.551771 L338.033767,241.261864 C338.013221,241.314339 338.125197,241.368871 338.125197,241.422374 L338.125197,241.424432 L338.125197,242.00268 L338.125197,242.010911 C338.125197,242.010911 338.125197,242.010911 338.125197,242.012969 C338.125197,242.012969 338.125197,242.012969 338.125197,242.017085 L338.125197,242.0212 L338.125197,242.023258 C338.125197,242.099398 338.123143,242.177595 338.137525,242.252705 C338.140607,242.256821 338.125197,242.256821 338.125197,242.258879 L338.125197,242.26711 C338.125197,242.26711 338.125197,242.26711 338.125197,242.269168 C338.125197,242.269168 338.125197,242.269168 338.125197,242.273284 L338.125197,242.277399 C338.125197,242.277399 338.125197,242.277399 338.125197,242.279457 L338.125197,242.283573 C338.125197,242.480095 338.077941,242.671472 338.186835,242.844329 C338.186835,242.842271 338.156016,242.848445 338.156016,242.848445 C338.156016,242.852561 338.125197,242.852561 338.125197,242.852561 L338.125197,242.854618 L338.078969,242.858734 C338.109788,242.907093 338.115952,242.951336 338.148825,242.995579 L367.990958,281.434663 C367.993013,281.438779 367.990958,281.440837 367.993013,281.444953 C367.995067,281.44701 367.993013,281.449068 367.995067,281.453184 C368.001231,281.461415 368.00945,281.467589 368.016641,281.474791 C368.041296,281.504629 368.070061,281.527265 368.09677,281.555046 C368.124508,281.584884 368.151218,281.613694 368.181009,281.639417 C368.211828,281.667197 368.237511,281.703209 368.269357,281.729961 C368.296067,281.750539 368.327914,281.763915 368.355651,281.784493 C368.396743,281.812274 368.438862,281.839025 368.482009,281.86269 C368.487146,281.866806 368.492282,281.870922 368.498446,281.872979 C368.587821,281.925454 368.679251,281.965581 368.774791,281.999536 C368.817937,282.01394 368.859029,282.031432 368.903204,282.043779 C368.924777,282.049952 368.945323,282.062299 368.966896,282.065386 C369.093255,282.093166 369.222695,282.109629 369.352135,282.109629 C369.453838,282.109629 369.55965,282.097282 369.664435,282.081848 L416.580349,273.538801 C416.638905,273.528512 416.691297,273.517194 416.747799,273.500731 C416.762181,273.495586 416.777591,273.503818 416.790946,273.503818 L416.795055,273.503818 C416.816628,273.503818 416.83512,273.476037 416.856693,273.467806 C416.898813,273.453401 416.938877,273.432823 416.97997,273.414303 C417.001543,273.404013 417.025171,273.394753 417.045717,273.383435 C417.063181,273.373146 417.072427,273.368002 417.079618,273.365944 C417.094,273.357712 417.103246,273.344337 417.117628,273.337134 C417.261451,273.256879 417.393973,273.158104 417.508004,273.043895 C417.522386,273.027432 417.532659,273.008912 417.547041,272.994507 C417.659017,272.872066 417.753529,272.735221 417.82544,272.585 C417.831604,272.574711 417.841877,272.56648 417.847014,272.555162 C417.851123,272.546931 417.855232,272.53767 417.858314,272.52841 L417.86345,272.518121 C417.871669,272.496514 417.879887,272.476965 417.889133,272.456386 L417.889133,272.456386 Z M414.773322,268.833591 L385.180824,250.304963 L418.472641,224.374349 L414.773322,268.833591 L414.773322,268.833591 Z M383.138545,247.481631 L371.885465,206.153365 L416.89984,221.183696 L383.138545,247.481631 L383.138545,247.481631 Z M422.023001,223.644851 L431.19271,229.768929 L418.965747,260.37903 L422.023001,223.644851 L422.023001,223.644851 Z M426.604774,222.517164 L421.881234,219.362524 L415.584892,206.751162 L426.604774,222.517164 L426.604774,222.517164 Z M417.100164,217.577363 L373.882542,203.148945 L402.695318,188.720526 L417.100164,217.577363 L417.100164,217.577363 Z M369.219613,201.590145 L362.557551,199.365639 L386.98785,192.691094 L369.219613,201.590145 L369.219613,201.590145 Z M357.561775,201.372016 L366.468495,204.346597 L345.683068,231.110629 L357.561775,201.372016 L357.561775,201.372016 Z M368.586794,207.292369 L379.727898,248.198782 L342.594994,240.761813 L368.586794,207.292369 L368.586794,207.292369 Z M379.702216,251.749554 L368.912449,276.964045 L343.736328,244.545119 L379.702216,251.749554 L379.702216,251.749554 Z M382.947467,253.018201 L411.533208,270.914049 L372.225502,278.07424 L382.947467,253.018201 L382.947467,253.018201 Z" id="Shape-Copy-28" fill="url(#linearGradient-3)" sketch:type="MSShapeGroup" mask="url(#mask-2)"></path>
                    <path d="M17.842258,272.456386 L34.887274,229.774073 C34.9427484,229.642373 34.9776767,229.506557 34.9982228,229.368683 C35.0043866,229.328555 35.0054139,229.289456 35.0095231,229.249329 C35.0167142,229.159814 35.0177415,229.070298 35.0115777,228.981812 C35.0084958,228.934482 35.0043866,228.888181 34.9971955,228.840851 C34.9828132,228.749278 34.9602126,228.659763 34.9324754,228.571277 C34.9201477,228.536294 34.9129566,228.500282 34.900629,228.465299 C34.8523457,228.343887 34.7917348,228.229678 34.717769,228.120614 C34.7136598,228.11444 34.7116052,228.108267 34.7074959,228.102093 L4.85200807,185.385826 C4.84173504,185.37245 4.84892617,185.359074 4.83865313,185.34467 L4.85303538,185.341583 L4.85303538,186.046387 L4.81502516,186.046387 C4.40102194,185.017476 3.69115537,184.889891 3.01518981,185.04217 C3.01518981,185.046285 3.0110806,185.029823 3.00799869,185.029823 C3.00491678,185.033939 2.99772566,185.017476 2.99772566,185.017476 L2.99361644,185.017476 L2.99053453,185.017476 L2.98745262,185.017476 L2.98334341,185.017476 L2.9802615,185.017476 L2.97307038,185.017476 C2.96998847,185.017476 2.96998847,184.86211 2.96587926,184.86211 L-43.9490069,197.59797 C-43.9746894,197.605173 -43.9962628,197.578421 -44.0219454,197.586652 C-44.1113208,197.615462 -44.1986416,197.628837 -44.2818531,197.672052 C-44.3373275,197.699832 -44.3866381,197.726584 -44.4380032,197.759509 C-44.4903957,197.793463 -44.5417608,197.822273 -44.5890168,197.861371 C-44.6342181,197.898412 -44.6753103,197.936482 -44.7164024,197.977638 C-44.765713,198.027026 -44.8119416,198.078472 -44.8561157,198.134033 C-44.8869348,198.17416 -44.9167265,198.21223 -44.9434364,198.254415 C-44.9906924,198.326439 -45.0297299,198.403607 -45.0667128,198.483862 C-45.0780132,198.507527 -45.09445,198.527077 -45.1036957,198.551771 L-62.0131077,241.261864 C-62.0336538,241.314339 -61.9216777,241.368871 -61.9216777,241.422374 L-61.9216777,241.424432 L-61.9216777,242.00268 L-61.9216777,242.010911 C-61.9216777,242.010911 -61.9216777,242.010911 -61.9216777,242.012969 C-61.9216777,242.012969 -61.9216777,242.012969 -61.9216777,242.017085 L-61.9216777,242.0212 L-61.9216777,242.023258 C-61.9216777,242.099398 -61.9237323,242.177595 -61.9093501,242.252705 C-61.9062682,242.256821 -61.9216777,242.256821 -61.9216777,242.258879 L-61.9216777,242.26711 C-61.9216777,242.26711 -61.9216777,242.26711 -61.9216777,242.269168 C-61.9216777,242.269168 -61.9216777,242.269168 -61.9216777,242.273284 L-61.9216777,242.277399 C-61.9216777,242.277399 -61.9216777,242.277399 -61.9216777,242.279457 L-61.9216777,242.283573 C-61.9216777,242.480095 -61.9689337,242.671472 -61.8600395,242.844329 C-61.8600395,242.842271 -61.8908586,242.848445 -61.8908586,242.848445 C-61.8908586,242.852561 -61.9216777,242.852561 -61.9216777,242.852561 L-61.9216777,242.854618 L-61.9679064,242.858734 C-61.9370873,242.907093 -61.9309234,242.951336 -61.8980497,242.995579 L-32.0559168,281.434663 C-32.0538622,281.438779 -32.0559168,281.440837 -32.0538622,281.444953 C-32.0518076,281.44701 -32.0538622,281.449068 -32.0518076,281.453184 C-32.0456438,281.461415 -32.0374253,281.467589 -32.0302342,281.474791 C-32.0055789,281.504629 -31.9768145,281.527265 -31.9501046,281.555046 C-31.9223674,281.584884 -31.8956575,281.613694 -31.8658657,281.639417 C-31.8350466,281.667197 -31.809364,281.703209 -31.7775176,281.729961 C-31.7508077,281.750539 -31.7189613,281.763915 -31.6912241,281.784493 C-31.650132,281.812274 -31.6080126,281.839025 -31.5648658,281.86269 C-31.5597293,281.866806 -31.5545928,281.870922 -31.548429,281.872979 C-31.4590536,281.925454 -31.3676236,281.965581 -31.2720844,281.999536 C-31.2289377,282.01394 -31.1878455,282.031432 -31.1436715,282.043779 C-31.1220981,282.049952 -31.1015521,282.062299 -31.0799787,282.065386 C-30.9536204,282.093166 -30.8241802,282.109629 -30.69474,282.109629 C-30.5930369,282.109629 -30.4872247,282.097282 -30.3824398,282.081848 L16.5334737,273.538801 C16.5920299,273.528512 16.6444224,273.517194 16.7009241,273.500731 C16.7153063,273.495586 16.7307159,273.503818 16.7440708,273.503818 L16.74818,273.503818 C16.7697534,273.503818 16.7882449,273.476037 16.8098182,273.467806 C16.8519377,273.453401 16.8920025,273.432823 16.9330946,273.414303 C16.954668,273.404013 16.978296,273.394753 16.998842,273.383435 C17.0163062,273.373146 17.0255519,273.368002 17.032743,273.365944 C17.0471253,273.357712 17.056371,273.344337 17.0707533,273.337134 C17.2145757,273.256879 17.3470978,273.158104 17.4611285,273.043895 C17.4755108,273.027432 17.4857838,273.008912 17.500166,272.994507 C17.6121421,272.872066 17.706654,272.735221 17.7785652,272.585 C17.784729,272.574711 17.7950021,272.56648 17.8001386,272.555162 C17.8042478,272.546931 17.808357,272.53767 17.8114389,272.52841 L17.8165754,272.518121 C17.8247939,272.496514 17.8330123,272.476965 17.842258,272.456386 L17.842258,272.456386 Z M14.7264472,268.833591 L-14.866051,250.304963 L18.4257663,224.374349 L14.7264472,268.833591 L14.7264472,268.833591 Z M-16.90833,247.481631 L-28.1614101,206.153365 L16.852965,221.183696 L-16.90833,247.481631 L-16.90833,247.481631 Z M21.9761264,223.644851 L31.1458355,229.768929 L18.9188719,260.37903 L21.9761264,223.644851 L21.9761264,223.644851 Z M26.557899,222.517164 L21.8343586,219.362524 L15.5380168,206.751162 L26.557899,222.517164 L26.557899,222.517164 Z M17.0532891,217.577363 L-26.1643325,203.148945 L2.64844254,188.720526 L17.0532891,217.577363 L17.0532891,217.577363 Z M-30.8272621,201.590145 L-37.4893238,199.365639 L-13.0590246,192.691094 L-30.8272621,201.590145 L-30.8272621,201.590145 Z M-42.4850997,201.372016 L-33.5783803,204.346597 L-54.3638075,231.110629 L-42.4850997,201.372016 L-42.4850997,201.372016 Z M-31.4600809,207.292369 L-20.3189769,248.198782 L-57.4518811,240.761813 L-31.4600809,207.292369 L-31.4600809,207.292369 Z M-20.3446594,251.749554 L-31.1344258,276.964045 L-56.3105472,244.545119 L-20.3446594,251.749554 L-20.3446594,251.749554 Z M-17.0994084,253.018201 L11.4863326,270.914049 L-27.8213727,278.07424 L-17.0994084,253.018201 L-17.0994084,253.018201 Z" id="Shape-Copy-29" fill="url(#linearGradient-3)" sketch:type="MSShapeGroup" mask="url(#mask-2)"></path>
                    <path d="M291.191309,208.028941 C291.18194,207.765007 291.125722,207.499899 291.020313,207.248868 C290.954725,207.092853 290.875083,206.943876 290.779043,206.81015 C290.557685,206.492255 290.268396,206.245916 289.942799,206.079344 C289.734324,205.971424 289.505938,205.895176 289.267011,205.859985 C289.21782,205.8506 289.166287,205.841216 289.117096,205.837697 L201.892381,196.704383 C201.548046,196.650423 201.422726,196.670364 201.408671,196.679749 C200.862887,196.886204 199.968083,198.805303 200.000877,199.163081 L205.690616,295.665823 C205.699986,295.858202 205.662507,296.050581 205.715212,296.228884 C205.79134,296.489299 205.880352,296.727427 206.033781,296.937402 C206.264509,297.251777 206.554969,297.506328 206.923901,297.6729 C207.076158,297.739763 207.223731,297.793723 207.392385,297.830088 C207.479054,297.847683 207.563382,297.860587 207.650051,297.865279 L294.458986,306.998593 C294.552683,307.01267 294.640524,306.91648 294.735392,306.91648 C294.88882,306.911788 295.050447,306.765157 295.207389,306.765157 L295.207389,306.765157 L295.209732,306.765157 L296.508604,306.765157 L296.510946,306.765157 C296.548425,305.592114 296.584733,306.373361 296.62104,306.325266 C296.93024,305.880683 297.059073,305.22026 297.026279,304.713505 L291.191309,208.028941 L291.191309,208.028941 Z M281.832168,209.686451 L221.907194,245.56515 L205.458717,201.649933 L281.832168,209.686451 L281.832168,209.686451 Z M205.217447,214.067768 L218.320948,249.050261 L209.301458,281.707782 L205.217447,214.067768 L205.217447,214.067768 Z M210.772498,293.582498 L222.037198,252.799307 L286.755936,301.579134 L210.772498,293.582498 L210.772498,293.582498 Z M224.82585,249.1617 L286.846119,212.029019 L292.155215,299.902855 L224.82585,249.1617 L224.82585,249.1617 Z" id="Shape-Copy-5" fill="url(#linearGradient-3)" sketch:type="MSShapeGroup" mask="url(#mask-2)"></path>
                    <path d="M311.951897,152.961595 C311.96402,152.867768 312.03125,152.784979 312.03125,152.68784 L312.03125,90.9019518 C312.03125,90.6889084 311.947488,90.491319 311.886871,90.2948334 C311.873646,90.2495755 311.878054,90.2043176 311.862625,90.1590596 C311.858216,90.1469173 311.838378,90.1425019 311.833969,90.1303595 C311.711633,89.8190733 311.508842,89.560772 311.263068,89.3433133 C311.19694,89.2814976 311.126404,89.2494859 311.052561,89.1998126 C310.847566,89.0607273 310.622732,88.9624845 310.375855,88.9006688 C310.316341,88.884111 310.271153,88.8344377 310.210536,88.8267107 L243.383073,78.526671 C242.654568,78.4074551 241.92496,78.6944565 241.452147,79.256317 C241.452147,79.256317 215.424319,110.73927 215.360395,110.989844 C215.333944,111.092502 215,172.5086 215,172.5086 C215,173.54622 215.250183,174.427094 216.270752,174.583841 C216.270752,174.583841 285.767567,184.830896 285.799528,184.790053 L311.500025,153.9661 C311.56505,153.88883 311.587093,153.827015 311.638893,153.740914 C311.713837,153.618387 311.805314,153.517936 311.85491,153.378851 C311.908914,153.238662 311.929854,153.108407 311.951897,152.961595 L311.951897,152.961595 Z M243.914299,82.8559772 L305.904527,92.4098131 L283.335173,119.539175 L221.341638,109.989754 L243.914299,82.8559772 L243.914299,82.8559772 Z M219.452593,113.945959 L282.273824,123.594726 L282.273824,181.132993 L219.452593,171.484226 L219.452593,113.945959 L219.452593,113.945959 Z M286.682332,122.557105 L307.622743,96.703796 L307.622743,151.923974 L286.682332,177.781699 L286.682332,122.557105 L286.682332,122.557105 Z" id="Shape-Copy-24" fill="url(#linearGradient-3)" sketch:type="MSShapeGroup" mask="url(#mask-2)"></path>
                </g>
            </g>
        </g>
    </g>
</svg>