<?xml version="1.0" encoding="UTF-8" standalone="no"?>
<svg width="28px" height="17px" viewBox="0 0 28 17" version="1.1" xmlns="http://www.w3.org/2000/svg" xmlns:xlink="http://www.w3.org/1999/xlink">
    <!-- Generator: Sketch 3.6.1 (26313) - http://www.bohemiancoding.com/sketch -->
    <title>hamburger_collapse</title>
    <desc>Created with Sketch.</desc>
    <defs></defs>
    <g id="Introduction" stroke="none" stroke-width="1" fill="none" fill-rule="evenodd">
        <g id="Artboard-2" transform="translate(-402.000000, -109.000000)" fill="#0A0B09">
            <g id="hamburger_collapse" transform="translate(402.000000, 109.000000)">
                <path d="M15.039164,16.0300007 L0.808,16.0300007 C0.584,16.0300007 0.404,15.9399782 0.247,15.782939 C0.09,15.6258998 0,15.4458549 0,15.221799 L0,13.6274011 C0,13.4033451 0.09,13.2233002 0.247,13.066261 C0.404,12.9092218 0.584,12.8191994 0.808,12.8191994 L12.2357281,12.8191994 C12.9307462,14.080482 13.8901155,15.1756397 15.039164,16.0300007 Z M11.1286658,9.60839802 L0.808,9.60839802 C0.584,9.60839802 0.404,9.5193758 0.247,9.3623366 C0.09,9.20429716 0,9.02525248 0,8.80019631 L0,7.20679864 C0,6.98174247 0.09,6.80269778 0.247,6.64565859 C0.404,6.4886194 0.584,6.39859693 0.808,6.39859693 L11.1275373,6.39859693 C11.0436121,6.92001244 11,7.45491314 11,8 C11,8.54752464 11.0440031,9.08477181 11.1286658,9.60839802 Z M12.2192635,3.21080134 L0.808,3.21080134 C0.584,3.21080134 0.404,3.12077887 0.247,2.96373968 C0.09,2.80570023 0,2.62665555 0,2.40159938 L0,0.808201707 C0,0.583145539 0.09,0.404100853 0.247,0.24706166 C0.404,0.0900224674 0.584,0 0.808,0 L14.9990251,0 C13.8587006,0.856747693 12.9075014,1.95162676 12.2192635,3.21080134 Z M27.659,7.4800061 L26.515,6.3580061 L21.981,1.8240061 C21.846,1.6670061 21.644,1.6000061 21.42,1.6000061 C21.195,1.6000061 21.015,1.6670061 20.858,1.8240061 L19.714,2.9690061 C19.557,3.1260061 19.489,3.3050061 19.489,3.5300061 C19.489,3.7320061 19.557,3.9340061 19.714,4.0910061 L22.093,6.4480061 L15.808,6.4480061 C15.584,6.4480061 15.404,6.5380061 15.247,6.6950061 C15.09,6.8520061 15,7.0310061 15,7.2560061 L15,8.8490061 C15,9.0740061 15.09,9.2530061 15.247,9.4110061 C15.404,9.5680061 15.584,9.6580061 15.808,9.6580061 L22.093,9.6580061 L19.714,12.0140061 C19.579,12.1710061 19.489,12.3510061 19.489,12.5750061 C19.489,12.8000061 19.579,13.0020061 19.714,13.1370061 L20.858,14.2810061 C21.015,14.4380061 21.195,14.5060061 21.42,14.5060061 C21.644,14.5060061 21.846,14.4380061 21.981,14.2810061 L26.515,9.7470061 L27.659,8.6250061 C27.817,8.4680061 27.884,8.2880061 27.884,8.0420061 C27.884,7.8170061 27.817,7.6370061 27.659,7.4800061 Z" id="Combined-Shape" transform="translate(13.942000, 8.015000) scale(-1, 1) translate(-13.942000, -8.015000) "></path>
            </g>
        </g>
    </g>
</svg>