
<svg width="186px" height="149px" viewBox="0 0 186 149" version="1.1" xmlns="http://www.w3.org/2000/svg" xmlns:xlink="http://www.w3.org/1999/xlink">
    <g id="Page-1" stroke="none" stroke-width="1" fill="none" fill-rule="evenodd">
        <g id="Group" transform="translate(1.000000, 1.000000)" stroke="#FFFFFF" fill="#FFFFFF">
            <polygon id="Path" points="0.5 4.5 14 0 107.5 73.5 96.5 88.5 0 19"></polygon>
            <polygon id="Path-2" points="88.5 110 123.5 62 129.5 67 94.5 114.5"></polygon>
            <path d="M178.946662,124.459242 L126,84 L110,105 L163.959828,144.470615 C166.055819,146.058161 168.66792,147 171.5,147 C178.403559,147 184,141.403559 184,134.5 C184,130.386556 182.013096,126.737179 178.946662,124.459242 Z M128.5,109 C132.642136,109 136,105.642136 136,101.5 C136,97.3578644 132.642136,94 128.5,94 C124.357864,94 121,97.3578644 121,101.5 C121,105.642136 124.357864,109 128.5,109 Z M145.5,122 C149.642136,122 153,118.642136 153,114.5 C153,110.357864 149.642136,107 145.5,107 C141.357864,107 138,110.357864 138,114.5 C138,118.642136 141.357864,122 145.5,122 Z M161.5,134 C165.642136,134 169,130.642136 169,126.5 C169,122.357864 165.642136,119 161.5,119 C157.357864,119 154,122.357864 154,126.5 C154,130.642136 157.357864,134 161.5,134 Z" id="Combined-Shape"></path>
        </g>
    </g>
</svg>
